<svg width="320" height="319" viewBox="0 0 320 319" fill="none" xmlns="http://www.w3.org/2000/svg">
<path d="M214.797 316.843L217.805 317.745L274.047 238.044C282.267 238.144 296.603 240.149 306.528 226.314C315.104 214.36 326.078 189.623 312.543 180.6C299.009 171.577 277.054 181.502 265.926 200.751C257.024 216.15 262.217 228.822 265.926 233.233L208.181 310.527L214.797 316.843Z" fill="#D9D9D9"/>
<path d="M214.797 316.843L217.805 317.746L274.047 238.044C282.267 238.144 296.603 240.149 306.528 226.314C315.104 214.36 326.078 189.623 312.543 180.6C299.009 171.577 277.054 181.502 265.926 200.751C257.024 216.15 262.217 228.822 265.926 233.233L208.181 310.527L214.797 316.843ZM214.797 316.843L271.64 238.044M274.047 232.63C272.342 231.628 268.693 228.72 267.731 225.111C266.528 220.6 265.024 213.382 270.137 204.66C275.25 195.938 286.979 182.403 299.009 181.501M313.747 189.923C314.649 194.133 314.468 205.682 306.528 218.194" stroke="black" stroke-width="0.51778" stroke-linecap="round"/>
<path d="M119.969 89.4712C169.594 83.7568 248.393 105.111 248.694 156.841C249.478 161.509 249.415 167.201 248.005 173.388C244.126 217.004 222.803 271.382 156.361 287.536V298.499C151.649 300.504 138.075 304.755 121.473 305.717C104.872 306.68 94.9065 303.111 91.9991 301.206V289.87C28.3068 276.799 4.66852 212.775 0.869441 178.495C-6.64949 115.636 70.3444 95.1856 119.969 89.4712Z" fill="#529842"/>
<path d="M0.869441 178.495C-6.64949 115.636 70.3444 95.1856 119.969 89.4712C169.594 83.7568 248.393 105.111 248.694 156.841M0.869441 178.495C4.17784 201.754 35.7575 246.107 135.609 237.445C235.46 228.783 252.603 180.1 248.694 156.841M0.869441 178.495C4.66852 212.775 28.3068 276.799 91.9991 289.87M248.694 156.841C248.956 202.031 231.546 269.256 156.361 287.536M91.9991 289.87C100.579 291.631 109.886 292.467 119.969 292.182C133.391 291.802 145.481 290.181 156.361 287.536M91.9991 289.87V301.206C94.9065 303.111 104.872 306.68 121.473 305.717C138.075 304.755 151.649 300.504 156.361 298.499V287.536M7.18555 178.495C4.17784 153.233 22.5238 101.384 119.969 96.0892C217.415 90.7948 242.578 134.384 242.979 156.841C242.378 179.498 217.776 226.077 124.18 231.129C34.6748 229.445 8.88985 195.338 7.18555 178.495Z" stroke="black" stroke-width="0.51778"/>
<path d="M124.267 231.702C217.863 226.649 242.465 180.071 243.066 157.413C243.009 154.174 242.436 150.495 241.205 146.587C240.351 144.442 238.103 139.695 235.938 137.865C233.231 135.578 216.689 136.662 215.185 128.241C213.681 119.82 200.448 114.707 185.711 116.211C173.921 117.414 169.971 113.303 169.47 111.098C168.969 109.093 165.681 104.541 156.538 102.376C145.109 99.6691 136.086 109.293 127.665 102.376C119.244 95.4585 103.905 105.383 94.2808 109.293C84.6566 113.203 88.2657 113.504 78.3407 114.707C68.4157 115.91 74.4308 113.504 65.4081 116.211C56.3854 118.918 62.7013 120.722 36.8362 132.452C10.971 144.181 19.693 150.798 16.6854 150.798C14.2794 150.798 12.0738 152.004 11.2718 152.607C7.29724 162.46 6.41324 171.849 7.27265 179.068C8.97694 195.911 34.7619 230.017 124.267 231.702Z" fill="#FA762B"/>
<path d="M56.3853 174.257C58.4906 174.959 63.423 176.062 66.3103 174.859C69.9194 173.355 62.0997 165.535 70.5209 161.926M105.409 138.768C107.945 138.968 114.142 137.985 118.642 132.452C124.267 125.535 143.605 130.948 138.793 138.768M151.725 148.392C150.422 150.097 148.056 154.708 149.019 159.52C150.222 165.535 147.303 170.648 135.785 172.754C126.571 174.438 127.936 181.676 129.77 185.085M99.6943 179.068C103.805 178.868 111.063 180.333 107.213 187.792C102.401 197.115 93.9799 198.017 99.6943 202.829M135.785 205.837C138.793 207.341 144.868 211.732 145.109 217.266C145.409 224.183 164.658 225.687 167.064 221.476M175.786 132.452C179.495 132.552 187.275 133.595 188.719 136.964M7.27265 179.068C8.97694 195.911 34.7619 230.017 124.267 231.702C217.863 226.649 242.465 180.071 243.066 157.413C243.009 154.174 242.436 150.495 241.205 146.587C240.351 144.442 238.103 139.695 235.938 137.865C233.231 135.578 216.689 136.662 215.185 128.241C213.681 119.82 200.448 114.707 185.711 116.211C173.921 117.414 169.971 113.303 169.47 111.098C168.969 109.093 165.681 104.541 156.538 102.376C145.109 99.6691 136.086 109.293 127.665 102.376C119.244 95.4585 103.905 105.383 94.2808 109.293C84.6566 113.203 88.2657 113.504 78.3407 114.707C68.4157 115.91 74.4308 113.504 65.4081 116.211C56.3854 118.918 62.7013 120.722 36.8362 132.452C10.971 144.181 19.693 150.798 16.6854 150.798C14.2794 150.798 12.0738 152.004 11.2718 152.607C7.29724 162.46 6.41324 171.849 7.27265 179.068Z" stroke="black" stroke-width="0.51778"/>
<path d="M99.0059 290.98C109.833 292.284 135.277 293.807 150.435 289.477" stroke="black" stroke-width="0.51778" stroke-linecap="round"/>
<path d="M143.516 268.416C148.328 264.406 158.374 254.822 160.058 248.566M139.005 279.845C146.123 275.534 162.765 262.642 172.389 245.559" stroke="black" stroke-width="0.51778" stroke-linecap="round"/>
<path d="M116.751 276.233C107.126 271.902 110.334 264.804 113.141 261.797C117.954 255.781 126.976 263.601 128.179 266.909C129.382 270.218 128.781 281.647 116.751 276.233Z" fill="white"/>
<path d="M61.4111 259.691C63.5766 252.954 71.3361 254.879 74.9452 256.684C77.4515 258.086 81.2611 262.096 76.449 266.909C70.4339 272.927 58.7043 268.112 61.4111 259.691Z" fill="white"/>
<path d="M49.0801 236.531C42.5837 234.847 42.1627 228.811 42.7642 226.004C45.6516 227.929 54.5939 230.817 58.7042 232.02C58.203 234.225 55.5765 238.215 49.0801 236.531Z" fill="white"/>
<path d="M39.7565 249.764C35.9068 244.711 29.7312 245.253 27.1247 246.155C29.5307 250.486 35.9469 257.383 38.8542 260.291C40.759 258.887 43.6062 254.817 39.7565 249.764Z" fill="white"/>
<path d="M22.6133 221.493C20.6885 215.959 13.7911 215.177 10.583 215.478C12.2672 220.289 16.4979 228.51 18.4027 232.02C20.6083 230.817 24.5382 227.027 22.6133 221.493Z" fill="white"/>
<path d="M89.0807 245.254C81.6219 244.532 78.9552 239.139 78.5542 236.532C88.1784 238.216 97.2011 238.637 100.509 238.637C99.8077 241.144 96.5395 245.976 89.0807 245.254Z" fill="white"/>
<path d="M162.465 260.593C165.593 256.021 172.992 258.688 176.3 260.593C181.413 268.412 176.3 274.427 167.879 273.224C159.458 272.021 158.556 266.307 162.465 260.593Z" fill="white"/>
<path d="M189.233 274.427C189.834 269.214 194.406 259.149 207.88 260.593C205.474 264.442 194.446 271.42 189.233 274.427Z" fill="white"/>
<path d="M218.707 239.84C212.211 244.171 213.795 250.668 215.399 253.374C218.005 250.567 224.061 243.389 227.429 237.134C224.301 236.171 220.311 238.537 218.707 239.84Z" fill="white"/>
<path d="M235.85 201.945C237.053 195.689 241.966 195.128 244.272 195.629C242.828 201.885 240.863 208.06 240.061 210.366C238.156 210.166 234.647 208.201 235.85 201.945Z" fill="white"/>
<path d="M199.759 235.329C207.218 233.886 206.476 224.903 205.173 220.592C199.399 223.72 189.734 227.109 185.624 228.412C187.228 231.319 192.301 236.773 199.759 235.329Z" fill="white"/>
<path d="M140.209 249.465C127.939 251.39 123.868 243.049 123.367 238.638C128.48 238.337 140.991 237.374 150.134 235.931C149.894 244.833 143.418 248.663 140.209 249.465Z" fill="white"/>
<path d="M292.694 119.538H271.641L260.813 109.012L273.145 74.1239C270.237 72.4196 264.483 68.0606 264.723 58.1957C265.024 45.8647 274.949 40.7378 285.476 40.7383C298.107 40.7388 303.858 49.9324 305.326 56.3912C306.829 63.0079 304.123 70.2159 297.506 74.1239L305.326 110.215L292.694 119.538Z" fill="#D9D9D9"/>
<path d="M271.641 119.538H292.694M271.641 119.538L280.964 75.6277M271.641 119.538L260.813 109.012L273.145 74.1239M292.694 119.538L289.686 75.6277M292.694 119.538L305.326 110.215L297.506 74.1239M289.686 75.6277H280.964M289.686 75.6277C291.892 75.3852 296.543 74.745 297.506 74.1239M280.964 75.6277C279.039 75.6277 274.949 74.6252 273.145 74.1239M273.145 74.1239C270.237 72.4196 264.483 68.0606 264.723 58.1957C265.024 45.8647 274.949 40.7378 285.476 40.7383C298.107 40.7388 303.858 49.9324 305.326 56.3912C306.829 63.0079 304.123 70.2159 297.506 74.1239" stroke="black" stroke-width="0.51778" stroke-linecap="round"/>
<path d="M245.175 79.5461H224.122L213.295 69.0196L225.626 34.1317C222.719 32.4274 216.964 28.0684 217.205 18.2036C217.506 5.8725 227.431 0.745635 237.957 0.746094C250.589 0.746644 256.339 9.94024 257.807 16.399C259.311 23.0157 256.604 30.2237 249.987 34.1317L257.807 70.2226L245.175 79.5461Z" fill="#D9D9D9"/>
<path d="M224.122 79.5461H245.175M224.122 79.5461L233.446 35.6355M224.122 79.5461L213.295 69.0196L225.626 34.1317M245.175 79.5461L242.168 35.6355M245.175 79.5461L257.807 70.2226L249.987 34.1317M242.168 35.6355H233.446M242.168 35.6355C244.373 35.393 249.025 34.7528 249.987 34.1317M233.446 35.6355C231.521 35.6355 227.431 34.633 225.626 34.1317M225.626 34.1317C222.719 32.4274 216.964 28.0684 217.205 18.2036C217.506 5.8725 227.431 0.745635 237.957 0.746094C250.589 0.746644 256.339 9.94024 257.807 16.399C259.311 23.0157 256.604 30.2237 249.987 34.1317" stroke="black" stroke-width="0.51778" stroke-linecap="round"/>
<circle cx="280.363" cy="47.371" r="0.902272" fill="black"/>
<circle cx="284.574" cy="49.164" r="0.902272" fill="black"/>
<circle cx="285.774" cy="44.957" r="0.902272" fill="black"/>
<circle cx="236.572" cy="10.3341" r="0.902272" transform="rotate(-39.8119 236.572 10.3341)" fill="black"/>
<circle cx="234.414" cy="5.8771" r="0.902272" transform="rotate(-39.8119 234.414 5.8771)" fill="black"/>
<circle cx="240.96" cy="9.03726" r="0.902272" transform="rotate(-39.8119 240.96 9.03726)" fill="black"/>
<circle cx="239.189" cy="5.02945" r="0.902272" transform="rotate(-39.8119 239.189 5.02945)" fill="black"/>
<path d="M237.353 30.8195C237.804 30.0883 237.709 28.8657 237.353 27.5212M237.353 27.5212C236.822 25.5165 235.709 23.2409 234.95 21.9195C236.886 21.1605 240.798 20.3464 240.958 23.1613C241.118 25.9762 238.622 27.2408 237.353 27.5212Z" stroke="black" stroke-width="1.03556" stroke-linecap="round"/>
<path d="M287.88 63.2908C287.546 62.2882 286.326 60.6338 284.121 62.0375C281.364 63.7922 284.371 65.2953 285.625 65.5459C286.878 65.7966 288.632 67.0499 286.878 68.8046C285.123 70.5593 283.369 70.0579 281.865 68.5539" stroke="black" stroke-width="1.03556" stroke-linecap="round"/>
<path d="M67.9855 181.502C68.2261 174.524 72.8979 174.584 75.2037 175.487C79.4144 176.691 82.1209 195.936 86.3315 192.026C90.5421 188.117 97.4596 191.425 94.7527 195.936C92.0459 200.448 98.6626 205.26 99.2641 214.884C99.5592 219.605 95.0779 220.056 90.2577 219.113C85.2514 218.134 79.8795 215.65 79.1134 214.884C77.6096 213.38 67.9855 210.373 75.2037 205.26C82.4218 200.147 67.6847 190.224 67.9855 181.502Z" fill="#529842"/>
<path d="M50.8422 168.868C47.8346 166.161 41.8194 179.395 37.3081 179.395C35.0487 179.395 33.6144 178.374 32.7838 177.29C30.9664 175.785 30.3907 172.177 31.8944 170.072C33.3982 167.967 35.5035 163.757 37.3081 158.042C38.9779 152.754 47.3438 151.072 52.158 150.85C52.5463 150.833 52.9115 150.824 53.2482 150.824C57.7596 150.824 69.1884 146.012 71.8952 150.824C74.602 155.636 71.5944 157.742 69.1884 158.042C66.7823 158.343 60.4664 157.14 61.0679 163.757C61.6694 170.373 53.8497 171.575 50.8422 168.868Z" fill="#529842"/>
<path d="M31.8944 175.487C32.0069 175.974 32.2877 176.643 32.7838 177.29M32.7838 177.29C33.6144 178.374 35.0487 179.395 37.3081 179.395C41.8194 179.395 47.8346 166.161 50.8422 168.868C53.8497 171.575 61.6694 170.373 61.0679 163.757C60.4664 157.14 66.7823 158.343 69.1884 158.042C71.5944 157.742 74.602 155.636 71.8952 150.824C69.1884 146.012 57.7596 150.824 53.2482 150.824C48.7369 150.824 39.1126 152.328 37.3081 158.042C35.5035 163.757 33.3982 167.967 31.8944 170.072C30.3907 172.177 30.9664 175.785 32.7838 177.29ZM77.0081 187.215C80.0626 191.415 85.409 199.513 87.6771 205.26M94.7527 225.412C92.1179 224.094 89.964 219.571 89.1101 214.884M82.7225 206.163C84.9758 208.167 89.4081 212.718 89.1101 214.884M89.1101 214.884C88.7944 213.151 88.6564 211.396 88.7376 209.772C88.7949 208.625 88.3867 207.058 87.6771 205.26M86.3315 197.14C86.9278 198.643 88.0318 202.372 87.6771 205.26M40.3157 166.463C41.3455 164.166 43.28 160.801 46.03 157.319M64.0755 143.906C58.0357 145.844 52.972 149.701 49.0376 153.844M46.03 157.319C46.3308 159.164 46.7519 163.576 46.03 166.463M46.03 157.319C46.9437 156.162 47.9473 154.992 49.0376 153.844M39.1126 158.944C41.5187 157.248 46.8722 153.854 49.0376 153.844M49.0376 153.844C49.8396 154.04 51.3234 154.854 50.8422 156.538M75.2037 175.487C72.8978 174.584 68.2261 174.524 67.9855 181.502C67.6847 190.224 82.4218 200.147 75.2037 205.26C67.9855 210.373 77.6096 213.38 79.1134 214.884C80.6171 216.388 99.8656 224.508 99.2641 214.884C98.6626 205.26 92.0459 200.448 94.7527 195.936C97.4596 191.425 90.5421 188.117 86.3315 192.026C82.1209 195.936 79.4144 176.691 75.2037 175.487Z" stroke="black" stroke-width="0.51778" stroke-linecap="round"/>
<path d="M183.611 191.092C183.092 193.434 177.552 195.104 174.847 195.646C174.324 193.119 173.307 189.569 171.868 186.539C168.889 188.49 153.426 189.467 158.294 175.805C163.163 162.143 183.611 159.543 186.857 170.927C189.453 180.034 182.59 182.528 178.833 182.636C179.874 185.86 182.047 189.163 183.611 191.092Z" fill="#F5E0CC"/>
<path d="M181.663 180.684C184.975 180.684 183.611 170.926 179.391 175.805C177.893 177.538 178.002 180.062 178.833 182.636M169.654 184.588C166.733 185.239 157.645 182.962 164.461 180.684C167.516 179.663 170.035 182.679 171.868 186.539M178.833 182.636C179.874 185.86 182.047 189.163 183.611 191.092C183.092 193.434 177.552 195.104 174.847 195.646C174.324 193.119 173.307 189.569 171.868 186.539M178.833 182.636C182.59 182.528 189.453 180.034 186.857 170.927C183.611 159.543 163.163 162.143 158.294 175.805C153.426 189.467 168.889 188.49 171.868 186.539" stroke="black" stroke-width="0.51778" stroke-linecap="round"/>
<path d="M107.085 167.714C106.711 169.393 102.723 170.59 100.775 170.979C100.399 169.167 99.6663 166.621 98.6302 164.449C96.485 165.848 85.3518 166.548 88.8571 156.753C92.3625 146.958 107.085 145.094 109.422 153.256C111.292 159.785 106.35 161.573 103.645 161.651C104.395 163.963 105.959 166.331 107.085 167.714Z" fill="#F5E0CC"/>
<path d="M105.683 160.251C108.067 160.251 107.085 153.255 104.047 156.753C102.968 157.996 103.047 159.805 103.645 161.651M97.0363 163.05C94.933 163.517 88.3897 161.884 93.2972 160.251C95.4968 159.519 97.3101 161.681 98.6302 164.449M103.645 161.651C104.395 163.963 105.959 166.331 107.085 167.714C106.711 169.393 102.723 170.59 100.775 170.979C100.399 169.167 99.6663 166.621 98.6302 164.449M103.645 161.651C106.35 161.573 111.292 159.785 109.422 153.256C107.085 145.094 92.3625 146.958 88.8571 156.753C85.3518 166.548 96.485 165.848 98.6302 164.449" stroke="black" stroke-width="0.51778" stroke-linecap="round"/>
<path d="M191.81 155.744C189.056 155.864 186.062 161.798 184.908 164.75C187.663 165.847 191.476 167.706 194.617 169.939C191.815 172.92 187.623 190.219 204.051 187.438C220.48 184.657 227.503 162.042 215.272 156.098C205.486 151.342 201.295 158.609 200.422 162.837C196.983 161.016 193.68 157.899 191.81 155.744Z" fill="#F5E0CC"/>
<path d="M203.196 160.025C203.857 156.279 214.625 159.77 208.263 163.57C206.003 164.92 203.169 164.292 200.422 162.837M196.382 172.833C195.063 176.008 195.825 186.744 199.762 179.488C201.527 176.235 198.618 172.784 194.617 169.939M200.422 162.837C196.983 161.016 193.68 157.899 191.81 155.744C189.056 155.864 186.062 161.798 184.908 164.75C187.663 165.847 191.476 167.706 194.617 169.939M200.422 162.837C201.295 158.609 205.486 151.342 215.272 156.098C227.503 162.042 220.48 184.657 204.051 187.438C187.623 190.219 191.815 172.92 194.617 169.939" stroke="black" stroke-width="0.51778" stroke-linecap="round"/>
<ellipse cx="81.5644" cy="136.697" rx="4.81212" ry="7.21818" transform="rotate(-84.2498 81.5644 136.697)" fill="white"/>
<path d="M83.0586 139.863C84.5749 139.814 87.4943 139.04 87.0413 136.335" stroke="black" stroke-width="0.51778" stroke-linecap="round"/>
<ellipse cx="130.124" cy="156.041" rx="4.81212" ry="7.21818" transform="rotate(-84.2498 130.124 156.041)" fill="white"/>
<path d="M131.618 159.207C133.134 159.158 136.054 158.384 135.601 155.678" stroke="black" stroke-width="0.51778" stroke-linecap="round"/>
<ellipse cx="94.6417" cy="130.771" rx="4.81212" ry="7.21818" transform="rotate(-44.0582 94.6417 130.771)" fill="white"/>
<path d="M93.7354 134.16C94.9252 135.101 97.6548 136.394 99.0548 134.035" stroke="black" stroke-width="0.51778" stroke-linecap="round"/>
<ellipse cx="126.518" cy="199.256" rx="4.81212" ry="7.21818" transform="rotate(-84.2498 126.518 199.256)" fill="white"/>
<path d="M128.013 202.422C129.529 202.373 132.448 201.599 131.995 198.893" stroke="black" stroke-width="0.51778" stroke-linecap="round"/>
<ellipse cx="59.3633" cy="204.165" rx="4.81212" ry="7.21818" transform="rotate(-44.0582 59.3633 204.165)" fill="white"/>
<path d="M58.457 207.555C59.6468 208.496 62.3765 209.789 63.7765 207.429" stroke="black" stroke-width="0.51778" stroke-linecap="round"/>
<ellipse cx="202.405" cy="142.883" rx="4.81212" ry="7.21818" transform="rotate(40.7224 202.405 142.883)" fill="white"/>
<path d="M198.947 142.289C198.118 143.56 197.079 146.395 199.556 147.575" stroke="black" stroke-width="0.51778" stroke-linecap="round"/>
<circle cx="143.82" cy="123.754" r="1.50379" fill="black"/>
<circle cx="1.50379" cy="1.50379" r="1.50379" transform="matrix(1 0 0 -1 148.933 127.066)" fill="black"/>
<circle cx="1.50379" cy="1.50379" r="1.50379" transform="matrix(1 0 0 -1 119.456 181.203)" fill="black"/>
<circle cx="1.50379" cy="1.50379" r="1.50379" transform="matrix(1 0 0 -1 191.037 201.652)" fill="black"/>
<circle cx="1.50379" cy="1.50379" r="1.50379" transform="matrix(1 0 0 -1 184.422 202.855)" fill="black"/>
<circle cx="1.50379" cy="1.50379" r="1.50379" transform="matrix(1 0 0 -1 122.465 221.5)" fill="black"/>
<circle cx="1.50379" cy="1.50379" r="1.50379" transform="matrix(1 0 0 -1 54.4922 187.812)" fill="black"/>
<circle cx="1.50379" cy="1.50379" r="1.50379" transform="matrix(1 0 0 -1 85.1699 173.984)" fill="black"/>
<path d="M169.685 141.203C165.595 134.466 157.154 136.592 153.444 138.496C157.775 138.496 162.868 147.919 164.873 152.63C168.181 151.628 173.775 147.94 169.685 141.203Z" fill="#D85026"/>
<path d="M158.858 214.887C153.805 209.834 145.324 209.574 142.617 211.278C144.722 214.586 142.015 217.293 146.828 221.504C150.677 224.872 158.457 224.01 161.565 223.609C162.768 222.807 163.911 219.94 158.858 214.887Z" fill="#D85026"/>
<path d="M41.2618 199.548C33.803 196.902 30.3342 190.024 29.5322 186.917C31.5373 186.014 36.3293 184.932 39.4572 187.819C42.5851 190.706 41.9635 196.842 41.2618 199.548Z" fill="#D85026"/>
<path d="M169.685 141.203C165.595 134.466 157.154 136.592 153.444 138.496C157.775 138.496 162.868 147.919 164.873 152.63C168.181 151.628 173.775 147.94 169.685 141.203Z" stroke="black" stroke-width="0.51778" stroke-linecap="round"/>
<path d="M158.858 214.887C153.805 209.834 145.324 209.574 142.617 211.278C144.722 214.586 142.015 217.293 146.828 221.504C150.677 224.872 158.457 224.01 161.565 223.609C162.768 222.807 163.911 219.94 158.858 214.887Z" stroke="black" stroke-width="0.51778" stroke-linecap="round"/>
<path d="M41.2618 199.548C33.803 196.902 30.3342 190.024 29.5322 186.917C31.5373 186.014 36.3293 184.932 39.4572 187.819C42.5851 190.706 41.9635 196.842 41.2618 199.548Z" stroke="black" stroke-width="0.51778" stroke-linecap="round"/>
</svg>
